<svg width="100" height="100" viewBox="0 0 100 100" fill="none" xmlns="http://www.w3.org/2000/svg">
<path d="M47.3888 50.608C44.749 46.8576 42.8339 43.7482 40.1808 37.8931C35.6947 28.0033 67.4654 19.0668 54.5836 1.89536C60.1674 13.7571 34.5414 21.09 32.1608 30.9681C29.9838 40.0538 47.3756 50.608 47.3888 50.608Z" fill="#F44336"/>
<path d="M47.9919 32.8282C47.484 38.6926 53.8879 41.8183 54.0731 46.1024C54.2212 49.5894 50.2456 52.496 50.2456 52.496C50.2456 52.496 57.4615 51.2466 59.7125 45.9276C62.2121 40.0212 54.8613 35.9772 55.6178 31.2479C56.3241 26.7307 71.5706 18.3279 71.5706 18.3279C71.5706 18.3279 49.1372 19.6379 47.9919 32.8282Z" fill="#F44336"/>
<path d="M69.6978 50.9739C74.3374 50.0556 78.2496 52.6591 78.2496 55.6589C78.2496 62.4208 67.6135 68.812 67.6135 68.812C67.6135 68.812 84.0794 67.0825 84.0794 55.9806C84.0794 48.6384 75.9933 46.804 69.6978 50.9739ZM61.8815 56.4281C61.8815 56.4281 67.0157 53.2045 68.3832 51.9948C55.7845 54.3513 27.0187 54.6683 27.0187 52.6218C27.0187 50.7362 36.2951 48.8039 36.2951 48.8039C36.2951 48.8039 15.7345 48.5428 15.7345 53.8875C15.7345 59.4582 42.6487 59.8568 61.8815 56.4281Z" fill="#1565C0"/>
<path d="M58.7232 61.5001C46.7963 64.994 24.8285 63.8775 31.3355 59.1855C28.1666 59.1855 23.4689 61.4301 23.4689 63.5885C23.4689 67.9169 47.2275 71.2594 64.8123 64.9218L58.7232 61.5001Z" fill="#1565C0"/>
<path d="M34.2584 68.8842C29.9309 68.8842 27.1298 71.3409 27.1298 73.131C27.1298 78.7041 52.9462 79.2659 63.175 73.6089L56.6732 69.8049C49.0314 72.7651 29.8357 73.173 34.2584 68.8842Z" fill="#1565C0"/>
<path d="M80.7995 77.9583C80.7995 75.7766 78.0088 74.7487 77.009 74.2568C82.9023 86.7805 17.9776 85.8086 17.9776 78.4151C17.9776 76.7346 22.7574 75.089 27.1747 75.8675L23.4186 73.9119C14.6156 72.6952 8.63764 76.1052 8.63764 78.8556C8.63764 91.6823 80.7995 91.0647 80.7995 77.9583Z" fill="#1565C0"/>
<path d="M87.9916 82.5547C77.0249 92.0996 49.2166 95.5772 21.2523 89.6801C49.2166 100.176 87.8593 94.2649 87.9916 82.5547Z" fill="#1565C0"/>
</svg>
