<svg width="95" height="96" viewBox="0 0 95 96" fill="none" xmlns="http://www.w3.org/2000/svg">
<path d="M26.8429 77.0093L4.66574 59.3588L15.6822 38.669L47.3031 51.1111L26.8429 77.0093Z" fill="#F57C00"/>
<path d="M95.2381 29.5556L93.5211 83.0857L58.3219 97.4074L37.1451 83.5185L68.0517 51.1111L95.2381 29.5556Z" fill="#1E88E5"/>
<path d="M95.2381 29.5555L67.3352 62.831L54.6017 21.0185L66.7651 6.26157L95.2381 29.5555Z" fill="#2962FF"/>
<path d="M73.9194 40.9838L47.7335 81.6389L11.1035 95.0926L16.9711 74.2593L24.5535 48.5069L73.9194 40.9838Z" fill="#AB47BC"/>
<path d="M24.5536 48.5069L3.66302 41.419L16.9712 4.81482L45.5884 8.28704L73.9194 40.9838L24.5536 48.5069Z" fill="#E91E63"/>
<path d="M19.6886 21.0185H76.9231V78.8889H19.6886V21.0185Z" fill="#000001"/>
<path d="M26.5568 68.4722H47.1612V71.9444H26.5568V68.4722ZM41.4377 32.3032V27.963H29.9908V32.3032H33.4249V47.3495H29.9908V51.6898H41.4377V47.3495H38.3677V32.3032H41.4377ZM52.5984 52.2685C48.3058 52.2685 46.0256 49.7268 45.158 48.6852L48.3883 44.9699C48.9721 45.6227 50.5952 47.3495 52.5984 47.3495C55.174 47.3495 55.7463 44.7454 55.7463 43.2986V27.963H60.8974V43.2986C60.8974 44.743 60.8974 47.0602 59.1804 49.375C57.9785 50.9954 55.174 52.2685 52.5984 52.2685Z" fill="white"/>
</svg>
