<svg width="100" height="100" viewBox="0 0 100 100" fill="none" xmlns="http://www.w3.org/2000/svg">
<g clip-path="url(#clip0_9_99)">
<path d="M44.3852 99.6766C42.8984 99.4992 41.3391 99.2703 40.9211 99.1672C40.306 99.0214 39.6873 98.8911 39.0656 98.7766C38.3556 98.6389 37.6512 98.4739 36.9539 98.282C33.7156 97.3539 33.4836 97.2781 31.0422 96.2797C28.7961 95.3641 24.6578 93.225 23.2422 92.2516C22.8547 91.9828 22.4922 91.7664 22.4367 91.7664C22.382 91.7664 21.4758 91.1289 20.4227 90.35C13.7273 85.3945 8.70078 79.3789 5.06875 71.9695C4.44375 70.6969 3.93359 69.568 3.93359 69.4617C3.93359 69.357 3.82109 69.0672 3.68359 68.8235C3.4 68.3164 2.99609 67.2242 2.67031 66.0953C2.53024 65.6157 2.36729 65.143 2.18203 64.6789C2.02969 64.3195 1.90703 63.882 1.90703 63.7055C1.90703 63.5281 1.75469 62.9516 1.56875 62.4203C1.38281 61.893 1.23281 61.2703 1.23281 61.0375C1.23281 60.8063 1.08672 60.0063 0.90625 59.2594C0.467187 57.4156 0 52.6399 0 49.9633C0 47.2899 0.467187 42.5141 0.90625 40.6711C1.08594 39.9234 1.23281 39.1086 1.23281 38.8586C1.23281 38.6078 1.34609 38.1164 1.48281 37.7649C1.62344 37.4149 1.80313 36.7859 1.88594 36.368C1.97188 35.95 2.16719 35.2297 2.32578 34.7625L2.78672 33.4141C3.125 32.4039 3.43906 31.5492 3.58906 31.2164C3.675 31.0305 4.01016 30.2711 4.33672 29.5289C4.86484 28.3297 5.99687 26.068 6.65859 24.8844C6.9 24.4508 6.99141 24.307 8.29766 22.2656C10.3672 19.025 13.9039 14.993 17.1961 12.1188C18.3562 11.1055 22.232 8.16329 22.4063 8.16329C22.4547 8.16329 22.8203 7.94376 23.2211 7.67501C24.2734 6.97033 25.3055 6.37189 26.6508 5.69767C27.1337 5.45884 27.6119 5.21061 28.0852 4.95314C28.3078 4.82501 28.7258 4.63282 30.8719 3.67189C31.3445 3.46095 31.8539 3.26876 33.3219 2.75548C33.6453 2.64298 34.2953 2.4047 34.7594 2.23048C35.2266 2.05704 35.7758 1.91329 35.9805 1.91329C36.182 1.91329 36.7125 1.77267 37.1586 1.59923C37.6039 1.42501 38.4125 1.22657 38.9586 1.15939C39.5023 1.09532 40.225 0.942981 40.5641 0.82345C40.9 0.707825 41.8219 0.557825 42.6117 0.491418C43.6411 0.398412 44.6678 0.277273 45.6906 0.128137C47.7906 -0.179675 52.3563 -0.179675 54.4344 0.128137C55.4159 0.268992 56.4009 0.384915 57.3883 0.475793C58.1328 0.537512 59.082 0.692981 59.5 0.821106C59.918 0.946106 60.6414 1.10236 61.1055 1.15939C61.5695 1.22111 62.3508 1.41329 62.8414 1.58986C63.3336 1.76954 63.8914 1.91329 64.0836 1.91329C64.2758 1.91329 64.6727 2.02032 64.9625 2.1547C65.2555 2.28595 65.875 2.50548 66.3422 2.64298C66.8062 2.78361 67.6023 3.06095 68.1156 3.26564C68.625 3.46954 69.3086 3.73829 69.6352 3.86017C70.2367 4.08673 74.682 6.31095 75.2867 6.68986C80.1937 9.75001 82.718 11.7492 86.1117 15.2555C90.2039 19.4852 92.9203 23.5133 95.6852 29.443C95.8805 29.8617 96.1789 30.4813 96.35 30.8164C96.518 31.1555 96.6586 31.5524 96.6586 31.6992C96.6586 31.8477 96.7992 32.293 96.9727 32.6906C97.443 33.7711 97.8453 35.0008 98.0352 35.9406C98.1289 36.4016 98.3031 36.9719 98.4219 37.207C98.5414 37.4414 98.6813 38.0375 98.7367 38.5258C98.7914 39.0133 98.9531 39.8133 99.0906 40.2985C99.8875 43.057 100.284 51.1844 99.8016 54.7789C99.6586 55.8469 99.4969 57.1383 99.4422 57.6477C99.35 58.5203 98.8891 60.7758 98.4953 62.2922L98.0891 63.8977C97.3234 66.9891 95.4312 71.393 93.1211 75.4672C92.2055 77.0844 89.1359 81.4578 88.5562 81.9703C88.5039 82.0156 88.2445 82.3219 87.982 82.6445C87.7195 82.9711 86.8773 83.8836 86.1148 84.6711C82.7547 88.1406 80.0445 90.2859 75.2867 93.2406C74.7227 93.5914 69.9375 95.9289 69.043 96.2922C68.5789 96.4781 67.8039 96.7922 67.3219 96.9875C66.843 97.1805 66.3086 97.3422 66.1406 97.3453C65.9727 97.3477 65.5305 97.4977 65.1578 97.6774C64.7859 97.857 64.3125 98.007 64.1023 98.0102C63.8945 98.0133 63.2875 98.1602 62.7531 98.3367C62.2195 98.5164 61.4773 98.7094 61.1047 98.7664C60.7328 98.825 59.9367 98.9836 59.332 99.118C58.7281 99.2524 56.9023 99.5149 55.2797 99.7008C51.66 100.123 48.003 100.115 44.3852 99.6766ZM48.0594 89.9109C48.2937 89.7281 48.5352 89.3641 48.5992 89.1086C48.7398 88.5438 71.4383 43.0383 71.8656 42.468C72.2258 41.986 72.2594 41.2141 71.9297 40.9422C71.7562 40.7961 69.5828 40.75 63.7812 40.7594C59.4297 40.7688 55.7711 40.7719 55.6516 40.7688C55.475 40.7625 55.4383 37.8547 55.4563 25.4C55.4688 16.9492 55.4289 9.95782 55.368 9.86095C55.307 9.76251 55.0688 9.68361 54.8367 9.68361C54.5102 9.68361 54.3578 9.82423 54.157 10.3149C53.7781 11.2274 52.7312 13.2992 47.6352 23.1938C46.5766 25.2471 45.5206 27.3018 44.4672 29.3578C43.5641 31.125 42.1391 33.8992 41.3055 35.5219C39.0617 39.8838 36.8226 44.2481 34.5883 48.6149C30.7344 56.143 30.268 57.0406 30.1023 57.2391C29.782 57.6266 29.6078 58.5203 29.7883 58.8563C29.9523 59.1641 30.2797 59.1766 38.4156 59.1641C43.0664 59.1586 46.9023 59.1828 46.9422 59.2188C47.0492 59.3289 47.0094 88.3672 46.8992 89.0594C46.8266 89.5141 46.875 89.7547 47.0828 89.9625C47.4422 90.3227 47.5406 90.3195 48.0594 89.9109Z" fill="#049688"/>
</g>
<defs>
<clipPath id="clip0_9_99">
<rect width="100" height="100" fill="white"/>
</clipPath>
</defs>
</svg>
