<svg width="100" height="100" viewBox="0 0 100 100" fill="none" xmlns="http://www.w3.org/2000/svg">
<path d="M50.0003 58.8471C54.9321 58.8471 58.9301 54.8491 58.9301 49.9174C58.9301 44.9856 54.9321 40.9877 50.0003 40.9877C45.0686 40.9877 41.0706 44.9856 41.0706 49.9174C41.0706 54.8491 45.0686 58.8471 50.0003 58.8471Z" fill="#00D8FF"/>
<path fill-rule="evenodd" clip-rule="evenodd" d="M50.0005 31.7614C61.9899 31.7614 73.1277 33.4817 81.5256 36.3728C91.6438 39.8563 97.8649 45.1363 97.8649 49.9174C97.8649 54.8996 91.2718 60.5089 80.4061 64.1089C72.1914 66.8306 61.3815 68.2514 50.0005 68.2514C38.3319 68.2514 27.2824 66.9178 18.9751 64.079C8.46494 60.4866 2.13455 54.8047 2.13455 49.9174C2.13455 45.1751 8.07441 39.9358 18.0504 36.4577C26.4796 33.5189 37.8924 31.7614 49.9989 31.7614H50.0005Z" stroke="#00D8FF" stroke-width="2.73408"/>
<path fill-rule="evenodd" clip-rule="evenodd" d="M34.1952 40.8917C40.1849 30.5058 47.239 21.7168 53.939 15.8863C62.0113 8.86132 69.6932 6.11015 73.8347 8.49837C78.1509 10.9873 79.7162 19.5013 77.4067 30.7121C75.6623 39.1881 71.491 49.2618 65.8053 59.1209C59.9758 69.2291 53.3008 78.1348 46.6922 83.9113C38.3298 91.2214 30.245 93.8668 26.0113 91.4252C21.9031 89.0578 20.332 81.2934 22.3028 70.9137C23.968 62.1437 28.1469 51.3791 34.1932 40.8915L34.1952 40.8917Z" stroke="#00D8FF" stroke-width="2.73408"/>
<path fill-rule="evenodd" clip-rule="evenodd" d="M34.2102 59.1474C28.2036 48.7732 24.114 38.2703 22.407 29.554C20.3522 19.052 21.805 11.0224 25.9428 8.62725C30.2547 6.13098 38.4126 9.02668 46.9717 16.6266C53.4431 22.3724 60.0882 31.0156 65.7904 40.8654C71.6366 50.9638 76.0183 61.1947 77.7228 69.805C79.8796 80.7009 78.134 89.0261 73.9042 91.4747C69.8 93.8506 62.2897 91.3351 54.2814 84.4437C47.5151 78.6213 40.2761 69.6246 34.2102 59.1472V59.1474Z" stroke="#00D8FF" stroke-width="2.73408"/>
</svg>
