<svg width="100" height="100" viewBox="0 0 100 100" fill="none" xmlns="http://www.w3.org/2000/svg">
<path d="M25.8141 13.3808C25.8141 6.49614 27.663 2.75082 37.8715 0.967361C44.8022 -0.245535 53.6886 -0.397147 61.9777 0.967361C68.5248 2.04633 74.0352 6.9156 74.0352 13.3808V36.0949C74.0352 42.7567 68.6852 48.2137 61.9777 48.2137H37.8715C29.6902 48.2137 22.7949 55.1788 22.7949 63.053V73.9508H14.5062C7.49509 73.9508 3.41302 68.9032 1.6982 61.8401C-0.614896 52.3512 -0.516703 46.6976 1.6982 37.61C3.61852 29.6822 9.75455 25.4992 16.7662 25.4992H49.9289V22.467H25.8136V13.3803L25.8141 13.3808Z" fill="url(#paint0_linear_9_80)"/>
<path d="M74.0357 86.0702C74.0357 92.9549 68.0515 96.442 61.9783 98.1809C52.8413 100.803 45.5083 100.402 37.872 98.1809C31.4946 96.3262 25.8146 92.5359 25.8146 86.0702V63.3562C25.8146 56.8192 31.2719 51.2373 37.872 51.2373H61.9783C70.0078 51.2373 77.0549 44.3087 77.0549 36.0948V25.5002H86.0936C93.1139 25.5002 96.419 30.708 98.1511 37.6109C100.562 47.1979 100.67 54.3676 98.1511 61.8411C95.713 69.1003 93.1048 73.9518 86.0936 73.9518H49.9295V76.9841H74.0357V86.0702Z" fill="url(#paint1_linear_9_80)"/>
<path d="M31.8428 11.8738C31.8428 9.35909 33.8613 7.32547 36.3627 7.32547C38.8544 7.32547 40.8825 9.35859 40.8825 11.8738C40.8825 14.3805 38.8549 16.4131 36.3627 16.4131C33.8623 16.4131 31.8428 14.38 31.8428 11.8738ZM58.9672 87.5777C58.9672 85.0711 60.9948 83.0385 63.4871 83.0385C65.9874 83.0385 68.007 85.0716 68.007 87.5777C68.007 90.0925 65.9884 92.1261 63.4871 92.1261C60.9953 92.1261 58.9672 90.093 58.9672 87.5777Z" fill="white"/>
<defs>
<linearGradient id="paint0_linear_9_80" x1="74.0357" y1="28.7482" x2="0.000591028" y2="28.1587" gradientUnits="userSpaceOnUse">
<stop stop-color="#366A96"/>
<stop offset="1" stop-color="#3679B0"/>
</linearGradient>
<linearGradient id="paint1_linear_9_80" x1="99.9995" y1="62.7502" x2="-46.5543" y2="62.7502" gradientUnits="userSpaceOnUse">
<stop stop-color="#FFC836"/>
<stop offset="1" stop-color="#FFE873"/>
</linearGradient>
</defs>
</svg>
