<svg width="137" height="25" viewBox="0 0 137 25" fill="none" xmlns="http://www.w3.org/2000/svg">
<path d="M8.71199 24.624C7.96799 24.624 7.40399 24.468 7.01999 24.156C6.63599 23.82 6.44399 23.244 6.44399 22.428C6.44399 21.804 6.53999 20.94 6.73199 19.836C6.94799 18.708 7.24799 17.46 7.63199 16.092C7.43999 15.132 7.19999 14.136 6.91199 13.104C6.64799 12.048 6.33599 11.052 5.97599 10.116C5.51999 8.84399 4.96799 7.77599 4.31999 6.91199C3.67199 6.04799 2.90399 5.61599 2.01599 5.61599C1.84799 5.61599 1.67999 5.62799 1.51199 5.652C1.36799 5.676 1.23599 5.71199 1.11599 5.75999C0.875989 5.808 0.623989 5.64 0.359989 5.25599C0.119989 4.87199 -1.07405e-05 4.416 -1.07405e-05 3.88799C-1.07405e-05 3.21599 0.227989 2.62799 0.683989 2.12399C1.16399 1.59599 1.81199 1.332 2.62799 1.332C3.63599 1.332 4.55999 1.668 5.39999 2.34C6.26399 2.988 7.01999 4.092 7.66799 5.652C8.33999 7.21199 8.87999 9.33599 9.28799 12.024C9.71999 10.92 10.236 9.756 10.836 8.532C11.46 7.28399 12.156 6.11999 12.924 5.03999C13.692 3.93599 14.52 3.04799 15.408 2.37599C16.296 1.68 17.232 1.332 18.216 1.332C18.864 1.332 19.356 1.48799 19.692 1.79999C20.052 2.11199 20.232 2.54399 20.232 3.09599C20.232 3.48 20.148 3.888 19.98 4.32C19.836 4.75199 19.632 5.12399 19.368 5.43599C19.104 5.74799 18.828 5.90399 18.54 5.90399C18.444 5.90399 18.336 5.90399 18.216 5.90399C18.12 5.87999 18.012 5.84399 17.892 5.79599C17.652 5.67599 17.376 5.61599 17.064 5.61599C16.296 5.61599 15.456 6.14399 14.544 7.2C13.632 8.256 12.732 9.888 11.844 12.096C10.932 14.424 10.476 16.68 10.476 18.864C10.476 19.368 10.536 19.872 10.656 20.376C10.8 20.856 11.052 21.3 11.412 21.708C11.652 22.068 11.772 22.404 11.772 22.716C11.772 23.244 11.484 23.7 10.908 24.084C10.332 24.444 9.59999 24.624 8.71199 24.624ZM21.3007 24.948C20.1007 24.948 19.1647 24.6 18.4927 23.904C17.8447 23.208 17.5207 22.2 17.5207 20.88C17.5207 19.944 17.6527 18.984 17.9167 18C18.0367 17.592 18.1327 17.184 18.2047 16.776C18.2767 16.368 18.3127 15.96 18.3127 15.552C18.3127 14.496 17.9887 13.812 17.3407 13.5C16.7167 13.164 16.4047 12.804 16.4047 12.42C16.4047 12.036 16.5607 11.652 16.8727 11.268C17.2087 10.884 17.6167 10.572 18.0967 10.332C18.5767 10.068 19.0567 9.936 19.5367 9.936C20.9047 9.936 21.5887 11.052 21.5887 13.284C21.5887 14.004 21.5287 14.676 21.4087 15.3C21.3127 15.9 21.1927 16.476 21.0487 17.028C20.9527 17.412 20.8687 17.796 20.7967 18.18C20.7487 18.564 20.7247 18.9 20.7247 19.188C20.7247 20.388 21.3127 20.988 22.4887 20.988C23.5927 20.988 24.6247 20.4 25.5847 19.224C26.5447 18.048 27.3367 16.404 27.9607 14.292L27.9247 13.608C27.8767 12.408 28.0807 11.496 28.5367 10.872C29.0167 10.248 29.7127 9.936 30.6247 9.936C31.4167 9.936 31.8127 10.188 31.8127 10.692C31.8127 10.86 31.7767 11.076 31.7047 11.34C31.6567 11.604 31.5727 11.916 31.4527 12.276C31.2127 13.164 31.0087 14.112 30.8407 15.12C30.6727 16.104 30.5887 17.016 30.5887 17.856C30.5887 18.792 30.7327 19.572 31.0207 20.196C31.3087 20.796 31.8487 21.204 32.6407 21.42C32.8567 21.444 33.0247 21.516 33.1447 21.636C33.2887 21.732 33.3607 21.948 33.3607 22.284C33.3607 22.86 33.1207 23.424 32.6407 23.976C32.1607 24.528 31.4647 24.804 30.5527 24.804C28.8007 24.804 27.9247 23.568 27.9247 21.096C27.9247 20.664 27.9607 20.016 28.0327 19.152L27.9607 19.116C26.4487 23.004 24.2287 24.948 21.3007 24.948ZM36.8744 24.876C36.5384 24.876 36.2504 24.792 36.0104 24.624C35.7704 24.48 35.6744 24.276 35.7224 24.012C36.0824 22.092 36.3824 20.148 36.6224 18.18C36.8864 16.188 37.0184 14.184 37.0184 12.168C37.0184 10.392 36.9584 8.784 36.8384 7.344C36.7184 5.904 36.3344 4.524 35.6864 3.20399C35.5664 2.93999 35.4704 2.71199 35.3984 2.52C35.3264 2.32799 35.2904 2.14799 35.2904 1.98C35.2904 1.52399 35.5544 1.07999 36.0824 0.647994C36.6344 0.215995 37.2104 -4.52995e-06 37.8104 -4.52995e-06C38.6504 -4.52995e-06 39.2264 0.527995 39.5384 1.58399C39.8504 2.64 40.0064 4.2 40.0064 6.26399C40.0064 8.73599 39.8624 10.896 39.5744 12.744C39.2864 14.568 39.0344 15.96 38.8184 16.92L38.9624 16.992C39.4424 15.72 40.0184 14.532 40.6904 13.428C41.3864 12.324 42.1904 11.436 43.1024 10.764C44.0144 10.092 45.0704 9.756 46.2704 9.756C47.5424 9.756 48.5024 10.14 49.1504 10.908C49.8224 11.676 50.1584 12.624 50.1584 13.752C50.1584 14.232 50.1104 14.7 50.0144 15.156C49.9184 15.588 49.8104 16.008 49.6904 16.416C49.5704 16.8 49.4624 17.196 49.3664 17.604C49.2704 17.988 49.2224 18.384 49.2224 18.792C49.2224 19.536 49.4024 20.148 49.7624 20.628C50.1224 21.084 50.6024 21.408 51.2024 21.6C51.3704 21.648 51.4904 21.72 51.5624 21.816C51.6584 21.888 51.7064 22.032 51.7064 22.248C51.7064 22.464 51.6344 22.776 51.4904 23.184C51.3464 23.592 51.0824 23.976 50.6984 24.336C50.3144 24.672 49.7504 24.84 49.0064 24.84C48.0464 24.84 47.3024 24.504 46.7744 23.832C46.2464 23.136 45.9824 22.248 45.9824 21.168C45.9824 20.64 46.0304 20.1 46.1264 19.548C46.2464 18.996 46.3784 18.468 46.5224 17.964C46.6424 17.46 46.7504 16.992 46.8464 16.56C46.9424 16.104 46.9904 15.72 46.9904 15.408C46.9904 14.304 46.4144 13.752 45.2624 13.752C44.3024 13.752 43.4504 14.1 42.7064 14.796C41.9864 15.468 41.3624 16.332 40.8344 17.388C40.3304 18.42 39.9104 19.488 39.5744 20.592V21.816C39.5744 22.704 39.3104 23.436 38.7824 24.012C38.2784 24.588 37.6424 24.876 36.8744 24.876ZM58.4601 24.948C57.0201 24.948 55.8561 24.504 54.9681 23.616C54.1041 22.704 53.6721 21.408 53.6721 19.728C53.6721 18.528 53.9001 17.34 54.3561 16.164C54.8361 14.964 55.5201 13.884 56.4081 12.924C57.2961 11.964 58.3641 11.196 59.6121 10.62C60.8601 10.044 62.2641 9.756 63.8241 9.756C65.2641 9.756 66.4881 10.008 67.4961 10.512C68.5281 10.992 69.0441 11.652 69.0441 12.492C69.0441 12.708 69.0201 12.996 68.9721 13.356C68.9241 13.692 68.8641 13.968 68.7921 14.184C68.7201 14.376 68.6121 14.556 68.4681 14.724C68.3481 14.868 68.1801 14.94 67.9641 14.94C67.8681 14.94 67.6881 14.904 67.4241 14.832C67.3281 15.336 67.2561 15.828 67.2081 16.308C67.1601 16.788 67.1361 17.268 67.1361 17.748C67.1361 18.66 67.2681 19.476 67.5321 20.196C67.8201 20.892 68.3721 21.324 69.1881 21.492C69.4041 21.54 69.5721 21.612 69.6921 21.708C69.8361 21.804 69.9081 22.008 69.9081 22.32C69.9081 22.584 69.8361 22.92 69.6921 23.328C69.5721 23.736 69.3201 24.108 68.9361 24.444C68.5761 24.756 68.0481 24.912 67.3521 24.912C66.4161 24.912 65.6961 24.576 65.1921 23.904C64.6881 23.208 64.4361 22.224 64.4361 20.952C63.7881 22.128 62.9601 23.088 61.9521 23.832C60.9681 24.576 59.8041 24.948 58.4601 24.948ZM59.6121 21.204C60.5721 21.204 61.4121 20.904 62.1321 20.304C62.8761 19.704 63.4521 18.948 63.8601 18.036C64.1241 17.46 64.3281 16.836 64.4721 16.164C64.6161 15.468 64.7121 14.784 64.7601 14.112C64.3521 13.92 63.8841 13.764 63.3561 13.644C62.8281 13.524 62.2761 13.464 61.7001 13.464C60.2361 13.464 59.0241 13.896 58.0641 14.76C57.1281 15.624 56.6601 16.704 56.6601 18C56.6601 18.96 56.9241 19.74 57.4521 20.34C57.9801 20.916 58.7001 21.204 59.6121 21.204ZM83.7838 24.876C83.1358 24.876 82.7278 24.732 82.5598 24.444C82.3918 24.156 82.3558 23.748 82.4518 23.22C82.8118 21.444 83.1238 19.512 83.3878 17.424C83.6518 15.336 83.7838 13.236 83.7838 11.124C83.7838 9.68399 83.7238 8.39999 83.6038 7.272C83.5078 6.14399 83.1598 5.08799 82.5598 4.10399C82.4638 3.95999 82.3798 3.82799 82.3078 3.70799C82.2598 3.564 82.2358 3.444 82.2358 3.348C82.2358 3.036 82.4038 2.73599 82.7398 2.44799C83.0998 2.136 83.5198 1.872 83.9998 1.656C84.4798 1.44 84.9358 1.332 85.3678 1.332C85.9438 1.332 86.3518 1.524 86.5918 1.90799C86.8558 2.292 87.0118 2.772 87.0598 3.348C87.1078 3.9 87.1318 4.464 87.1318 5.03999C87.1318 5.61599 87.0958 6.26399 87.0238 6.98399C86.9758 7.67999 86.9158 8.448 86.8438 9.28799C86.7238 10.392 86.6038 11.604 86.4838 12.924C86.3638 14.22 86.3038 15.576 86.3038 16.992C86.3038 18.6 86.3638 19.92 86.4838 20.952C86.6038 21.96 86.6878 22.62 86.7358 22.932C86.8078 23.34 86.6878 23.688 86.3758 23.976C86.0638 24.264 85.6678 24.48 85.1878 24.624C84.7078 24.792 84.2398 24.876 83.7838 24.876ZM97.4998 24.804C96.5398 24.804 95.6158 24.564 94.7278 24.084C93.8638 23.604 93.0478 22.98 92.2798 22.212C91.5118 21.444 90.8158 20.604 90.1918 19.692C89.5918 18.78 89.0638 17.88 88.6078 16.992C88.1758 16.104 87.8518 15.324 87.6358 14.652C87.4198 14.004 87.3118 13.44 87.3118 12.96C87.3118 12.432 87.5038 11.796 87.8878 11.052C88.1998 10.476 88.6558 9.78 89.2558 8.96399C89.8558 8.14799 90.5398 7.29599 91.3078 6.40799C92.0998 5.51999 92.9158 4.69199 93.7558 3.92399C94.6198 3.15599 95.4838 2.53199 96.3478 2.05199C97.2118 1.572 98.0158 1.332 98.7598 1.332C99.4318 1.332 99.9118 1.536 100.2 1.94399C100.512 2.32799 100.668 2.77199 100.668 3.27599C100.668 3.68399 100.584 4.11599 100.416 4.57199C100.248 5.02799 100.02 5.41199 99.7318 5.72399C99.4438 6.036 99.1078 6.192 98.7238 6.192C98.4838 6.192 98.2558 6.16799 98.0398 6.11999C97.8478 6.04799 97.5958 6.012 97.2838 6.012C96.9718 6.012 96.5998 6.072 96.1678 6.192C95.7598 6.312 95.3038 6.53999 94.7998 6.87599C94.3918 7.16399 93.8878 7.59599 93.2878 8.172C92.6878 8.724 92.0758 9.36 91.4518 10.08C90.8278 10.8 90.2518 11.568 89.7238 12.384C90.0598 13.2 90.5158 14.028 91.0918 14.868C91.6678 15.684 92.2678 16.452 92.8918 17.172C94.0198 18.468 95.0998 19.416 96.1318 20.016C97.1878 20.616 98.4718 20.916 99.9838 20.916C100.296 20.916 100.5 20.988 100.596 21.132C100.716 21.276 100.776 21.504 100.776 21.816C100.776 22.512 100.512 23.184 99.9838 23.832C99.4798 24.48 98.6518 24.804 97.4998 24.804ZM104.903 6.588C104.231 6.564 103.691 6.36 103.283 5.976C102.875 5.592 102.671 5.05199 102.671 4.356C102.695 3.61199 102.947 3.01199 103.427 2.55599C103.907 2.076 104.519 1.848 105.263 1.87199C105.959 1.89599 106.499 2.09999 106.883 2.484C107.291 2.868 107.483 3.40799 107.459 4.10399C107.435 4.82399 107.195 5.424 106.739 5.90399C106.283 6.36 105.671 6.588 104.903 6.588ZM104.939 24.84C104.219 24.84 103.655 24.648 103.247 24.264C102.839 23.856 102.635 23.172 102.635 22.212C102.635 21.66 102.683 21.12 102.779 20.592C102.899 20.064 103.031 19.548 103.175 19.044C103.343 18.516 103.475 17.976 103.571 17.424C103.691 16.872 103.751 16.284 103.751 15.66C103.751 15.228 103.691 14.82 103.571 14.436C103.451 14.028 103.187 13.728 102.779 13.536C102.467 13.368 102.191 13.2 101.951 13.032C101.735 12.84 101.627 12.6 101.627 12.312C101.627 11.976 101.783 11.616 102.095 11.232C102.407 10.848 102.815 10.524 103.319 10.26C103.847 9.972 104.387 9.828 104.939 9.828C105.539 9.828 105.971 9.984 106.235 10.296C106.523 10.608 106.715 11.004 106.811 11.484C106.907 11.964 106.955 12.456 106.955 12.96C106.955 13.728 106.895 14.484 106.775 15.228C106.655 15.948 106.535 16.62 106.415 17.244C106.319 17.7 106.247 18.12 106.199 18.504C106.151 18.888 106.127 19.248 106.127 19.584C106.127 20.184 106.271 20.64 106.559 20.952C106.847 21.24 107.255 21.516 107.783 21.78C107.999 21.9 108.107 22.08 108.107 22.32C108.107 22.512 108.011 22.812 107.819 23.22C107.627 23.628 107.291 24 106.811 24.336C106.355 24.672 105.731 24.84 104.939 24.84ZM112.825 24.876C111.961 24.876 111.577 24.588 111.673 24.012C111.937 22.98 112.153 21.936 112.321 20.88C112.513 19.8 112.609 18.768 112.609 17.784C112.609 16.512 112.525 15.588 112.357 15.012C112.213 14.412 112.009 14.004 111.745 13.788C111.481 13.548 111.157 13.368 110.773 13.248C110.605 13.176 110.449 13.08 110.305 12.96C110.185 12.84 110.125 12.672 110.125 12.456C110.125 12.12 110.257 11.748 110.521 11.34C110.785 10.932 111.157 10.584 111.637 10.296C112.141 9.984 112.705 9.828 113.329 9.828C114.145 9.828 114.709 10.116 115.021 10.692C115.333 11.244 115.489 11.976 115.489 12.888C115.489 13.488 115.429 14.16 115.309 14.904C115.189 15.648 115.069 16.32 114.949 16.92L115.021 16.956C115.405 15.684 115.873 14.508 116.425 13.428C117.001 12.348 117.685 11.472 118.477 10.8C119.293 10.128 120.229 9.79199 121.285 9.79199C122.365 9.79199 123.217 10.164 123.841 10.908C124.465 11.628 124.777 12.696 124.777 14.112V14.904C125.473 13.44 126.313 12.216 127.297 11.232C128.305 10.248 129.517 9.756 130.933 9.756C132.085 9.756 132.985 10.14 133.633 10.908C134.281 11.676 134.605 12.636 134.605 13.788C134.605 14.244 134.557 14.688 134.461 15.12C134.365 15.528 134.257 15.936 134.137 16.344C134.041 16.728 133.945 17.124 133.849 17.532C133.753 17.94 133.705 18.348 133.705 18.756C133.705 20.196 134.317 21.132 135.541 21.564C135.709 21.636 135.841 21.72 135.937 21.816C136.033 21.888 136.081 22.032 136.081 22.248C136.081 22.464 136.009 22.776 135.865 23.184C135.745 23.592 135.493 23.976 135.109 24.336C134.725 24.672 134.173 24.84 133.453 24.84C132.517 24.84 131.797 24.504 131.293 23.832C130.789 23.136 130.537 22.26 130.537 21.204C130.537 20.676 130.585 20.124 130.681 19.548C130.777 18.972 130.897 18.42 131.041 17.892C131.161 17.412 131.257 16.956 131.329 16.524C131.425 16.092 131.473 15.72 131.473 15.408C131.473 14.832 131.329 14.412 131.041 14.148C130.777 13.884 130.417 13.752 129.961 13.752C129.193 13.752 128.497 13.992 127.873 14.472C127.273 14.952 126.733 15.576 126.253 16.344C125.797 17.112 125.401 17.952 125.065 18.864C125.089 19.08 125.101 19.368 125.101 19.728C125.125 20.064 125.137 20.364 125.137 20.628C125.137 21.084 125.101 21.564 125.029 22.068C124.981 22.572 124.873 22.992 124.705 23.328C124.513 23.784 124.225 24.156 123.841 24.444C123.481 24.732 122.989 24.876 122.365 24.876C122.101 24.876 121.849 24.816 121.609 24.696C121.369 24.6 121.249 24.432 121.249 24.192C121.249 24.096 121.321 23.676 121.465 22.932C121.609 22.164 121.753 21.228 121.897 20.124C122.041 19.02 122.113 17.94 122.113 16.884C122.113 15.732 121.993 14.94 121.753 14.508C121.513 14.052 121.153 13.824 120.673 13.824C120.073 13.824 119.497 14.076 118.945 14.58C118.417 15.084 117.925 15.732 117.469 16.524C117.037 17.316 116.653 18.144 116.317 19.008C116.005 19.872 115.753 20.676 115.561 21.42V21.816C115.561 22.704 115.309 23.436 114.805 24.012C114.325 24.588 113.665 24.876 112.825 24.876Z" fill="#3347F3"/>
</svg>
